<svg version="1.1" xmlns="http://www.w3.org/2000/svg" xmlns:xlink="http://www.w3.org/1999/xlink" x="0px" y="0px" viewBox="0 0 256.8 62.3" style="enable-background:new 0 0 256.8 62.3;" xml:space="preserve">
                                <style type="text/css">
                                    .st0{opacity:0.997;}
                                    .st1{fill:#FFFFFF;}
                                    .st2{opacity:0.3;fill:none;stroke:#FFFFFF;stroke-miterlimit:10;}
                                    .st3{fill:#010101;}
                                    .st4{opacity:0.3;fill:none;stroke:#010101;stroke-miterlimit:10;}
                                </style>
                                <g>
                                    <g id="logo_lgsignature" transform="translate(0)" class="st0">
                                        <path id="Combined_Shape" class="st1" d="M28.5,25.1c-4.4-0.9-7.1-3.5-8.1-7.9c-0.8-3.2-0.7-6.6,0.3-9.8c1.2-4,3.9-6.3,7.9-7.1
                                            c0.7-0.1,1.5-0.2,2.2-0.3h2.4c0.9,0.1,1.7,0.2,2.6,0.4c2.1,0.4,4.1,1.6,5.4,3.3c0.1,0.1,0.2,0.2,0.3,0.4l-3.5,3.3
                                            c0-0.1-0.1-0.2-0.1-0.2c-1.1-1.3-2.6-2.2-4.3-2.3c-1.2-0.1-2.4-0.1-3.5,0.2c-2.2,0.5-3.5,1.9-4,4c-0.6,2.4-0.6,4.9,0,7.4
                                            c0.6,2.4,2.1,3.8,4.5,4.2c1.9,0.3,3.8,0.2,5.6-0.4c0.2,0,0.4-0.2,0.4-0.5c0,0,0,0,0,0c0-1.2,0-2.4,0-3.5c0-0.1,0-0.2,0-0.4h-4.6
                                            v-4.6h9.8v0.4c0,3.7,0,7.4,0,11.1c0,0.3-0.1,0.5-0.4,0.6c-1.5,0.9-3.2,1.5-5,1.8c-1.4,0.3-2.8,0.4-4.2,0.4
                                            C30.8,25.5,29.6,25.4,28.5,25.1z M1.8,25.1V0.4h5.7v19.9h11.7v4.8H1.8z M163.3,24c-0.4-0.9-0.8-1.8-1.2-2.6
                                            c-0.4-0.8-0.7-1.6-1.1-2.3c-0.1-0.2-0.3-0.4-0.5-0.3h0c-2.1,0-4.3,0-6.4,0c-2.1,0-4.3,0-6.4,0h0c-0.2,0-0.5,0.1-0.5,0.3
                                            c-0.4,0.8-0.7,1.6-1.1,2.3c-0.4,0.9-0.8,1.8-1.2,2.6c-0.1,0.2-0.3,0.4-0.5,0.3h0c-0.4,0-0.9,0-1.4,0c-0.3,0-0.6,0-0.9,0h0
                                            c-0.3,0-0.6,0-0.9,0c0-0.1,0.1-0.1,0.1-0.2c0-0.1,0.1-0.2,0.1-0.3l2-4.2c2.9-6,5.8-12.1,8.7-18.2c0.1-0.3,0.3-0.4,0.6-0.4h0
                                            c0.4,0,0.9,0,1.4,0c0.6,0,1.1,0,1.6,0h0c0.2,0,0.4,0.1,0.5,0.3c3.1,6.5,6.3,13.2,9.3,19.6l1.5,3.1c0,0,0,0.1,0.1,0.2
                                            c0,0,0,0.1,0.1,0.1h-0.8c-0.2,0-0.5,0-0.7,0h0c-0.2,0-0.5,0-0.7,0c-0.4,0-0.8,0-1.1,0h0C163.6,24.4,163.3,24.3,163.3,24L163.3,24z
                                             M148.7,15.6h10.6l-5.3-11.3L148.7,15.6z M193.3,24.3c-0.9,0-1.7-0.1-2.6-0.3c-2.5-0.7-3.9-2.4-4.4-4.9c-0.1-0.8-0.2-1.5-0.2-2.3
                                            c0-5.1,0-10.2,0-15.3V1.1h3.4v0.5c0,5.1,0,10.3,0,15.4c0,0.5,0,1,0.1,1.6c0.3,1.5,1.5,2.6,3,2.7c0.6,0.1,1.2,0.1,1.8,0.1
                                            c0.5,0,1,0,1.6,0c1.5,0,3,0,4.5-0.1c1.9-0.1,3.1-1.4,3.2-3.2c0-0.4,0.1-0.8,0.1-1.2c0-5.1,0-10.1,0-15.2V1.1h3.3
                                            c0,0.1,0,0.2,0,0.3c0,5.2,0,10.4,0,15.6c0,0.9-0.1,1.7-0.3,2.6c-0.6,2.5-2.3,4-4.8,4.5c-0.7,0.1-1.4,0.2-2.1,0.2
                                            c-1.2,0-2.3,0-3.5,0C195.4,24.4,194.3,24.4,193.3,24.3z M98.3,24.3c-0.8,0-1.7-0.1-2.5-0.3c-2.6-0.6-4.5-2.9-4.6-5.6
                                            c0-0.6-0.1-1.1-0.1-1.7c0-2.9,0-5.8,0-8.6c0-0.9,0.1-1.8,0.3-2.6C92.2,3,94,1.6,96.6,1.2c0.6-0.1,1.2-0.1,1.9-0.1
                                            c4.4,0,8.8,0,13.3,0h0.4v3h-0.5c-4.5,0-9,0-13.5,0c-0.5,0-1,0.1-1.5,0.2c-1.3,0.3-2.3,1.5-2.3,2.8c0,0.7,0,1.5,0,2.3
                                            c0,2.7,0,5.5,0,8.2c0,2.3,1.1,3.6,3.4,3.6c3.2,0.1,6.4,0,9.5,0c1.8,0,2.8-1.2,2.9-3c0-1.3,0-2.5,0-3.8H102v-3h11.5
                                            c0,0.1,0,0.2,0,0.3c0,2,0,4,0,6.1c0,1-0.2,2-0.5,2.9c-1,2.4-2.9,3.4-5.3,3.7c-0.6,0.1-1.2,0.1-1.8,0.1c-1.4,0-2.8,0-4.1,0
                                            C100.5,24.4,99.4,24.4,98.3,24.3L98.3,24.3z M135,24.3c-0.2,0-0.4-0.1-0.5-0.3c-3.7-4.9-7.4-9.8-11-14.7c-1-1.3-1.9-2.6-2.9-3.9
                                            c-0.1-0.1-0.2-0.2-0.3-0.4v19.2h-3.1V1.1c0.1,0,0.1,0,0.2,0c1.2,0,2.3,0,3.5,0c0.2,0,0.4,0.2,0.5,0.3c4.7,6.2,9.3,12.4,13.9,18.6
                                            c0.1,0.1,0.2,0.2,0.3,0.4V1.1h3.2v23.2c-0.1,0-0.1,0-0.2,0c-0.6,0-1.2,0-1.8,0C136.2,24.4,135.6,24.4,135,24.3z M57.9,24.4h-0.5
                                            v-3.1h0.5c5,0,10.1,0,15.1,0c0.5,0,0.9-0.1,1.4-0.2c0.9-0.2,1.4-1,1.4-1.9c0-0.9,0-1.8,0-2.7c0.1-1.1-0.8-2.1-1.9-2.1c0,0,0,0,0,0
                                            c-0.3,0-0.5,0-0.8,0c-3.5,0-7.1,0-10.6,0c-0.9,0-1.7-0.1-2.5-0.4c-1.6-0.6-2.7-1.9-3-3.6c-0.3-1.6-0.3-3.3,0-4.9
                                            c0.3-2.2,2.1-3.9,4.3-4.1c0.6-0.1,1.1-0.1,1.7-0.1c4.7,0,9.4,0,14.1,0h0.5v3.1H77c-4.7,0-9.5,0-14.2,0c-0.5,0-0.9,0.1-1.3,0.2
                                            c-0.9,0.2-1.5,1.1-1.5,2c0,0.8,0,1.7,0,2.5c0,1.4,0.8,2.3,2.2,2.3c1.5,0,3.1,0,4.6,0c2.1,0,4.2,0,6.3,0c0.8,0,1.5,0.1,2.3,0.3
                                            c1.8,0.4,3.1,1.9,3.4,3.7c0.3,1.6,0.3,3.3,0,4.9c-0.4,2.5-2.2,4-4.6,4.2c-0.5,0-1,0.1-1.5,0.1c-2.8,0-5.6,0-8.5,0L57.9,24.4z
                                             M83.4,24.3V1.1h3.1v23.3H83.4z M232.4,24.3h-3.2c0-0.2-0.1-0.4-0.1-0.7c-0.1-0.5-0.2-1-0.3-1.4c-0.3-1.2-0.9-2.3-1.6-3.3
                                            c-0.8-1-1.8-1.7-2.9-2.2c-0.9-0.4-1.8-0.6-2.8-0.6c-1.3,0-2.5,0-3.5,0h-1.7h-0.6h-1.4c-0.1,0-0.1,0-0.2,0c0,0-0.1,0-0.1,0v8.2
                                            h-3.3V1.1c0,0,0.1,0,0.1,0c0.1,0,0.1,0,0.2,0h5.8c3,0,6.3,0,9.5,0c0.8,0,1.5,0.1,2.3,0.3c1.8,0.4,3.2,1.9,3.5,3.8
                                            c0.4,2.2,0.4,4.4,0.1,6.5c-0.3,2.1-1.6,3.5-3.9,4.1c1.3,1,2.3,2.3,3,3.8C232,21.1,232.4,22.7,232.4,24.3L232.4,24.3L232.4,24.3z
                                             M225.7,13.1h0.3c0.2,0,0.3,0,0.5,0c1.8-0.1,2.7-1,2.7-2.8v-0.2c0-1.1,0-2.3,0-3.5c0-0.5-0.1-0.9-0.4-1.3
                                            c-0.3-0.4-0.6-0.7-1.1-0.8c-0.5-0.2-1.1-0.3-1.7-0.3c-1.7,0-3.4,0-5.8,0c-0.9,0-1.9,0-2.8,0c-0.9,0-1.9,0-2.8,0h-0.4v9h11.3
                                            L225.7,13.1z M235.9,24.3V1.1h19.6v2.9h-16.3v7.1h16v3h-16v7.2h16.4v3H235.9z M171.5,24.3V4.1h-8.6v-3h20.6v3h-8.6v20.2H171.5z"></path>
                                    </g>
                                    <g id="그룹_33" transform="translate(104 99.672)">
                                        <path id="패스_14" class="st1" d="M-44.2-37.4c-0.2,0-0.2-0.1-0.2-0.1l-1.3-2.7c0-0.1-0.1-0.1-0.2-0.1h-8.7
                                            c-0.1,0-0.2,0.1-0.2,0.1l-1.3,2.6c0,0.1-0.1,0.1-0.2,0.1h-2.4c0,0,0,0-0.1,0c0,0,0-0.1,0-0.1l6-12.3c0.2-0.4,0.5-0.8,0.8-1.1
                                            c0.3-0.2,0.6-0.3,0.9-0.3h1.1c0.4,0,0.7,0.1,1.1,0.3c0.4,0.3,0.7,0.7,0.9,1.1l6.1,12.3c0,0,0,0.1,0,0.1c0,0,0,0,0,0L-44.2-37.4z
                                             M-50.3-48.8c-0.2,0-0.3,0.1-0.4,0.3l-2.9,6c0,0.1,0,0.2,0,0.3c0,0.1,0.1,0.1,0.2,0.1h6.3c0.1,0,0.2,0,0.2-0.1c0-0.1,0-0.2,0-0.3
                                            l-2.9-6c-0.1-0.2-0.2-0.3-0.4-0.3L-50.3-48.8z"></path>
                                        <path id="패스_15" class="st1" d="M-27.8-37.4c-0.1,0-0.1,0-0.2,0c0,0-0.1-0.1-0.1-0.1l-2.9-4.3c0-0.1-0.1-0.1-0.2-0.1h-6
                                            c-0.1,0-0.2,0.1-0.2,0.3v4.1c0,0.2,0,0.2-0.2,0.2h-2c-0.2,0-0.2-0.1-0.2-0.2v-13.3c0-0.3,0.1-0.4,0.3-0.4h9.9c1.3,0,2.3,0.3,2.9,1
                                            c0.6,0.7,0.9,1.7,0.9,3v1.2c0,0.9-0.2,1.8-0.6,2.6c-0.5,0.7-1.2,1.1-2,1.2c-0.1,0-0.2,0.1-0.2,0.2c0,0.1,0,0.2,0,0.2l3.2,4.3
                                            c0,0,0,0,0,0c0,0,0,0,0,0.1l0,0c0,0,0,0-0.1,0L-27.8-37.4z M-37-48.9c-0.3,0-0.5,0.2-0.5,0.4c0,0,0,0,0,0.1v4.3
                                            c0,0.1,0.1,0.2,0.2,0.3h7.1c0.6,0.1,1.1-0.1,1.5-0.5c0.3-0.4,0.5-1,0.5-1.6v-0.9c0-0.6-0.1-1.1-0.5-1.6c-0.4-0.4-0.9-0.6-1.5-0.5
                                            L-37-48.9z"></path>
                                        <path id="패스_16" class="st1" d="M-17.7-37.4c-0.1,0-0.2,0-0.2-0.2v-11c0-0.1-0.1-0.2-0.2-0.3h-5.8c-0.2,0-0.2,0-0.2-0.2v-2
                                            c0-0.1,0-0.2,0.2-0.2h14.4c0.2,0,0.2,0.1,0.2,0.2v2c0,0.2,0,0.2-0.2,0.2h-5.8c-0.1,0-0.2,0.1-0.2,0.3v11c0,0.2,0,0.2-0.2,0.2
                                            L-17.7-37.4z"></path>
                                        <path id="패스_17" class="st1" d="M3.7-37.4c-0.8,0-1.6-0.1-2.3-0.3c-0.6-0.2-1.1-0.5-1.5-0.9c-0.4-0.4-0.7-1-0.8-1.6
                                            c-0.2-0.8-0.3-1.6-0.3-2.4V-46c0-0.8,0.1-1.6,0.3-2.4c0.1-0.6,0.4-1.1,0.8-1.6c0.4-0.4,0.9-0.7,1.5-0.9c0.8-0.2,1.5-0.3,2.3-0.3
                                            h9.3c0.1,0,0.2,0,0.2,0.2v2c0,0.2-0.1,0.2-0.2,0.2H3.8c-0.4,0-0.8,0-1.2,0.1c-0.3,0.1-0.6,0.3-0.9,0.5c-0.2,0.3-0.4,0.6-0.5,1
                                            c-0.1,0.5-0.1,0.9-0.1,1.4v3c0,0.5,0,1,0.1,1.4c0.1,0.4,0.2,0.7,0.5,1c0.2,0.3,0.5,0.4,0.9,0.5c0.4,0.1,0.8,0.2,1.2,0.1h6.1
                                            c0.3,0,0.7-0.1,0.9-0.4c0.2-0.3,0.3-0.7,0.3-1.1v-1.7c0-0.3-0.1-0.5-0.4-0.5c0,0,0,0-0.1,0H5.2c-0.1,0-0.2,0-0.2-0.2v-1.5
                                            c0-0.2,0.1-0.2,0.2-0.2h7.7c0.2,0,0.3,0.1,0.3,0.4v4.8c0,1.1-0.2,1.8-0.5,2.3c-0.4,0.4-0.9,0.7-1.5,0.6L3.7-37.4z"></path>
                                        <path id="패스_18" class="st1" d="M29.3-37.4c-0.2,0-0.2-0.1-0.2-0.1l-1.3-2.7c0-0.1-0.1-0.1-0.2-0.1h-8.7
                                            c-0.1,0-0.2,0.1-0.2,0.1l-1.3,2.6c0,0.1-0.1,0.1-0.2,0.1h-2.4c0,0,0,0-0.1,0c0,0,0-0.1,0-0.1l6-12.3c0.2-0.4,0.5-0.8,0.8-1.1
                                            c0.3-0.2,0.6-0.3,0.9-0.3h1.1c0.4,0,0.7,0.1,1.1,0.3c0.4,0.3,0.7,0.7,0.9,1.1l6.1,12.3c0,0,0,0.1,0,0.1c0,0,0,0,0,0L29.3-37.4z
                                             M23.1-48.8c-0.2,0-0.3,0.1-0.4,0.3l-2.9,6c0,0.1,0,0.2,0,0.3c0,0.1,0.1,0.1,0.2,0.1h6.3c0.1,0,0.2,0,0.2-0.1c0-0.1,0-0.2,0-0.3
                                            l-2.9-6c-0.1-0.2-0.2-0.3-0.4-0.3H23.1z"></path>
                                        <path id="패스_19" class="st1" d="M37.8-37.4c-0.8,0-1.6-0.1-2.3-0.3c-0.6-0.2-1.1-0.5-1.5-0.9c-0.4-0.4-0.7-1-0.8-1.6
                                            c-0.2-0.8-0.3-1.6-0.3-2.4V-51c0-0.1,0-0.2,0.2-0.2h2c0.1,0,0.2,0,0.2,0.2v8.2c0,0.5,0,1,0.1,1.4c0.1,0.4,0.2,0.7,0.5,1
                                            c0.2,0.3,0.5,0.4,0.9,0.5c0.4,0.1,0.8,0.2,1.2,0.1h7.5c0.1,0,0.2,0,0.2,0.2v2c0,0.2,0,0.2-0.2,0.2L37.8-37.4z"></path>
                                        <path id="패스_20" class="st1" d="M52.3-37.4c-0.8,0-1.6-0.1-2.3-0.3c-0.6-0.2-1.1-0.5-1.5-0.9c-0.4-0.4-0.7-1-0.8-1.6
                                            c-0.2-0.8-0.3-1.6-0.3-2.4V-51c0-0.1,0-0.2,0.2-0.2h2c0.1,0,0.2,0,0.2,0.2v8.2c0,0.5,0,1,0.1,1.4c0.1,0.4,0.2,0.7,0.5,1
                                            c0.2,0.3,0.5,0.4,0.9,0.5c0.4,0.1,0.8,0.2,1.2,0.1h7.5c0.1,0,0.2,0,0.2,0.2v2c0,0.2,0,0.2-0.2,0.2L52.3-37.4z"></path>
                                        <path id="패스_21" class="st1" d="M66.9-37.4c-0.8,0-1.6-0.1-2.3-0.3c-0.6-0.2-1.1-0.5-1.5-0.9c-0.4-0.4-0.7-1-0.8-1.6
                                            c-0.2-0.8-0.3-1.6-0.3-2.4V-46c0-0.8,0.1-1.6,0.3-2.4c0.1-0.6,0.4-1.1,0.8-1.6c0.4-0.4,0.9-0.7,1.5-0.9c0.8-0.2,1.5-0.3,2.3-0.3
                                            h8.1c0.2,0,0.2,0.1,0.2,0.2v1.9c0,0.1,0,0.2-0.2,0.2H67c-0.4,0-0.8,0-1.2,0.1c-0.3,0.1-0.6,0.3-0.9,0.5c-0.2,0.3-0.4,0.6-0.5,1
                                            c-0.1,0.5-0.1,0.9-0.1,1.4v0.2c0,0.1,0.1,0.2,0.2,0.3H75c0.1,0,0.2,0,0.2,0.2v1.6c0,0.2,0,0.2-0.2,0.2H64.6
                                            c-0.1,0-0.2,0.1-0.2,0.3v0.3c0,0.5,0,0.9,0.1,1.4c0.1,0.4,0.2,0.7,0.5,1c0.2,0.3,0.5,0.4,0.9,0.5c0.4,0.1,0.8,0.2,1.2,0.1h8.1
                                            c0.2,0,0.2,0.1,0.2,0.2v1.9c0,0.1,0,0.2-0.2,0.2L66.9-37.4z"></path>
                                        <path id="패스_22" class="st1" d="M89.8-37.4c-0.1,0-0.1,0-0.2,0c0,0-0.1-0.1-0.1-0.1l-2.9-4.3c0-0.1-0.1-0.1-0.2-0.1h-6
                                            c-0.1,0-0.2,0.1-0.2,0.3v4.1c0,0.2,0,0.2-0.2,0.2h-2c-0.2,0-0.2-0.1-0.2-0.2v-13.3c0-0.3,0.1-0.4,0.3-0.4h9.9c1.3,0,2.3,0.3,2.9,1
                                            c0.6,0.7,0.9,1.7,0.9,3v1.2c0,0.9-0.2,1.8-0.6,2.6c-0.5,0.7-1.2,1.1-2,1.2c-0.1,0-0.2,0.1-0.2,0.2c0,0.1,0,0.2,0,0.2l3.2,4.3
                                            c0,0,0,0,0,0c0,0,0,0,0,0.1l0,0c0,0,0,0-0.1,0L89.8-37.4z M80.7-48.9c-0.3,0-0.5,0.2-0.5,0.4c0,0,0,0,0,0.1v4.3
                                            c0,0.1,0.1,0.2,0.2,0.3h7.1c0.6,0.1,1.1-0.1,1.5-0.5c0.3-0.4,0.5-1,0.5-1.6v-0.9c0-0.6-0.1-1.1-0.5-1.6c-0.4-0.4-0.9-0.6-1.5-0.5
                                            L80.7-48.9z"></path>
                                        <path id="패스_23" class="st1" d="M99.3-37.4c-0.2,0-0.2-0.1-0.2-0.2v-3.9c0-0.1,0-0.1,0-0.2l-6.5-9.6H95c0.1,0,0.2,0,0.2,0.1
                                            l4.9,7.4c0,0.1,0.1,0.1,0.2,0.1l0,0c0.1,0,0.1,0,0.2-0.1l5-7.4c0-0.1,0.2-0.2,0.3-0.1h2.4l-6.6,9.6c0,0,0,0.1,0,0.2v3.9
                                            c0,0.2,0,0.2-0.2,0.2L99.3-37.4z"></path>
                                    </g>
                                    <line class="st2" x1="1.8" y1="36.9" x2="255.6" y2="36.9"></line>
                                </g>
                                <rect x="348" y="-40.1" class="st1" width="368.3" height="142.6"></rect>
                                <g>
                                    <g id="logo_lgsignature_1_" transform="translate(0)" class="st0">
                                        <path id="Combined_Shape_1_" class="st3" d="M431.9,25.1c-4.4-0.9-7.1-3.5-8.1-7.9c-0.8-3.2-0.7-6.6,0.3-9.8
                                            c1.2-4,3.9-6.3,7.9-7.1c0.7-0.1,1.5-0.2,2.2-0.3h2.4c0.9,0.1,1.7,0.2,2.6,0.4c2.1,0.4,4.1,1.6,5.4,3.3c0.1,0.1,0.2,0.2,0.3,0.4
                                            l-3.5,3.3c0-0.1-0.1-0.2-0.1-0.2c-1.1-1.3-2.6-2.2-4.3-2.3c-1.2-0.1-2.4-0.1-3.5,0.2c-2.2,0.5-3.5,1.9-4,4c-0.6,2.4-0.6,4.9,0,7.4
                                            c0.6,2.4,2.1,3.8,4.5,4.2c1.9,0.3,3.8,0.2,5.6-0.4c0.2,0,0.4-0.2,0.4-0.5c0,0,0,0,0,0c0-1.2,0-2.4,0-3.5c0-0.1,0-0.2,0-0.4h-4.6
                                            v-4.6h9.8v0.4c0,3.7,0,7.4,0,11.1c0,0.3-0.1,0.5-0.4,0.6c-1.5,0.9-3.2,1.5-5,1.8c-1.4,0.3-2.8,0.4-4.2,0.4
                                            C434.2,25.5,433,25.4,431.9,25.1z M405.2,25.1V0.4h5.7v19.9h11.7v4.8H405.2z M566.7,24c-0.4-0.9-0.8-1.8-1.2-2.6
                                            c-0.4-0.8-0.7-1.6-1.1-2.3c-0.1-0.2-0.3-0.4-0.5-0.3h0c-2.1,0-4.3,0-6.4,0s-4.3,0-6.4,0h0c-0.2,0-0.5,0.1-0.5,0.3
                                            c-0.4,0.8-0.7,1.6-1.1,2.3c-0.4,0.9-0.8,1.8-1.2,2.6c-0.1,0.2-0.3,0.4-0.5,0.3h0c-0.4,0-0.9,0-1.4,0c-0.3,0-0.6,0-0.9,0h0
                                            c-0.3,0-0.6,0-0.9,0c0-0.1,0.1-0.1,0.1-0.2c0-0.1,0.1-0.2,0.1-0.3l2-4.2c2.9-6,5.8-12.1,8.7-18.2c0.1-0.3,0.3-0.4,0.6-0.4h0
                                            c0.4,0,0.9,0,1.4,0c0.6,0,1.1,0,1.6,0h0c0.2,0,0.4,0.1,0.5,0.3c3.1,6.5,6.3,13.2,9.3,19.6l1.5,3.1c0,0,0,0.1,0.1,0.2
                                            c0,0,0,0.1,0.1,0.1h-0.8c-0.2,0-0.5,0-0.7,0h0c-0.2,0-0.5,0-0.7,0c-0.4,0-0.8,0-1.1,0h0C567,24.4,566.7,24.3,566.7,24L566.7,24z
                                             M552.1,15.6h10.6l-5.3-11.3L552.1,15.6z M596.7,24.3c-0.9,0-1.7-0.1-2.6-0.3c-2.5-0.7-3.9-2.4-4.4-4.9c-0.1-0.8-0.2-1.5-0.2-2.3
                                            c0-5.1,0-10.2,0-15.3V1.1h3.4v0.5c0,5.1,0,10.3,0,15.4c0,0.5,0,1,0.1,1.6c0.3,1.5,1.5,2.6,3,2.7c0.6,0.1,1.2,0.1,1.8,0.1
                                            c0.5,0,1,0,1.6,0c1.5,0,3,0,4.5-0.1c1.9-0.1,3.1-1.4,3.2-3.2c0-0.4,0.1-0.8,0.1-1.2c0-5.1,0-10.1,0-15.2V1.1h3.3
                                            c0,0.1,0,0.2,0,0.3c0,5.2,0,10.4,0,15.6c0,0.9-0.1,1.7-0.3,2.6c-0.6,2.5-2.3,4-4.8,4.5c-0.7,0.1-1.4,0.2-2.1,0.2
                                            c-1.2,0-2.3,0-3.5,0C598.8,24.4,597.7,24.4,596.7,24.3z M501.7,24.3c-0.8,0-1.7-0.1-2.5-0.3c-2.6-0.6-4.5-2.9-4.6-5.6
                                            c0-0.6-0.1-1.1-0.1-1.7c0-2.9,0-5.8,0-8.6c0-0.9,0.1-1.8,0.3-2.6c0.7-2.6,2.6-3.9,5.1-4.3c0.6-0.1,1.2-0.1,1.9-0.1
                                            c4.4,0,8.8,0,13.3,0h0.4v3h-0.5c-4.5,0-9,0-13.5,0c-0.5,0-1,0.1-1.5,0.2c-1.3,0.3-2.3,1.5-2.3,2.8c0,0.7,0,1.5,0,2.3
                                            c0,2.7,0,5.5,0,8.2c0,2.3,1.1,3.6,3.4,3.6c3.2,0.1,6.4,0,9.5,0c1.8,0,2.8-1.2,2.9-3c0-1.3,0-2.5,0-3.8h-8.2v-3h11.5
                                            c0,0.1,0,0.2,0,0.3c0,2,0,4,0,6.1c0,1-0.2,2-0.5,2.9c-1,2.4-2.9,3.4-5.3,3.7c-0.6,0.1-1.2,0.1-1.8,0.1c-1.4,0-2.8,0-4.1,0
                                            C503.9,24.4,502.8,24.4,501.7,24.3L501.7,24.3z M538.4,24.3c-0.2,0-0.4-0.1-0.5-0.3c-3.7-4.9-7.4-9.8-11-14.7
                                            c-1-1.3-1.9-2.6-2.9-3.9c-0.1-0.1-0.2-0.2-0.3-0.4v19.2h-3.1V1.1c0.1,0,0.1,0,0.2,0c1.2,0,2.3,0,3.5,0c0.2,0,0.4,0.2,0.5,0.3
                                            c4.7,6.2,9.3,12.4,13.9,18.6c0.1,0.1,0.2,0.2,0.3,0.4V1.1h3.2v23.2c-0.1,0-0.1,0-0.2,0c-0.6,0-1.2,0-1.8,0
                                            C539.6,24.4,539,24.4,538.4,24.3z M461.3,24.4h-0.5v-3.1h0.5c5,0,10.1,0,15.1,0c0.5,0,0.9-0.1,1.4-0.2c0.9-0.2,1.4-1,1.4-1.9
                                            c0-0.9,0-1.8,0-2.7c0.1-1.1-0.8-2.1-1.9-2.1c0,0,0,0,0,0c-0.3,0-0.5,0-0.8,0c-3.5,0-7.1,0-10.6,0c-0.9,0-1.7-0.1-2.5-0.4
                                            c-1.6-0.6-2.7-1.9-3-3.6c-0.3-1.6-0.3-3.3,0-4.9c0.3-2.2,2.1-3.9,4.3-4.1c0.6-0.1,1.1-0.1,1.7-0.1c4.7,0,9.4,0,14.1,0h0.5v3.1
                                            h-0.5c-4.7,0-9.5,0-14.2,0c-0.5,0-0.9,0.1-1.3,0.2c-0.9,0.2-1.5,1.1-1.5,2c0,0.8,0,1.7,0,2.5c0,1.4,0.8,2.3,2.2,2.3
                                            c1.5,0,3.1,0,4.6,0c2.1,0,4.2,0,6.3,0c0.8,0,1.5,0.1,2.3,0.3c1.8,0.4,3.1,1.9,3.4,3.7c0.3,1.6,0.3,3.3,0,4.9
                                            c-0.4,2.5-2.2,4-4.6,4.2c-0.5,0-1,0.1-1.5,0.1c-2.8,0-5.6,0-8.5,0L461.3,24.4z M486.8,24.3V1.1h3.1v23.3H486.8z M635.8,24.3h-3.2
                                            c0-0.2-0.1-0.4-0.1-0.7c-0.1-0.5-0.2-1-0.3-1.4c-0.3-1.2-0.9-2.3-1.6-3.3c-0.8-1-1.8-1.7-2.9-2.2c-0.9-0.4-1.8-0.6-2.8-0.6
                                            c-1.3,0-2.5,0-3.5,0h-1.7h-0.6h-1.4c-0.1,0-0.1,0-0.2,0c0,0-0.1,0-0.1,0v8.2h-3.3V1.1c0,0,0.1,0,0.1,0c0.1,0,0.1,0,0.2,0h5.8
                                            c3,0,6.3,0,9.5,0c0.8,0,1.5,0.1,2.3,0.3c1.8,0.4,3.2,1.9,3.5,3.8c0.4,2.2,0.4,4.4,0.1,6.5c-0.3,2.1-1.6,3.5-3.9,4.1
                                            c1.3,1,2.3,2.3,3,3.8C635.4,21.1,635.7,22.7,635.8,24.3L635.8,24.3L635.8,24.3z M629.1,13.1h0.3c0.2,0,0.3,0,0.5,0
                                            c1.8-0.1,2.7-1,2.7-2.8v-0.2c0-1.1,0-2.3,0-3.5c0-0.5-0.1-0.9-0.4-1.3c-0.3-0.4-0.6-0.7-1.1-0.8c-0.5-0.2-1.1-0.3-1.7-0.3
                                            c-1.7,0-3.4,0-5.8,0c-0.9,0-1.9,0-2.8,0s-1.9,0-2.8,0h-0.4v9h11.3L629.1,13.1z M639.3,24.3V1.1h19.6v2.9h-16.3v7.1h16v3h-16v7.2
                                            h16.4v3H639.3z M574.9,24.3V4.1h-8.6v-3h20.6v3h-8.6v20.2H574.9z"></path>
                                    </g>
                                    <g id="그룹_33_1_" transform="translate(104 99.672)">
                                        <path id="패스_14_1_" class="st3" d="M359.2-37.4c-0.2,0-0.2-0.1-0.2-0.1l-1.3-2.7c0-0.1-0.1-0.1-0.2-0.1h-8.7
                                            c-0.1,0-0.2,0.1-0.2,0.1l-1.3,2.6c0,0.1-0.1,0.1-0.2,0.1h-2.4c0,0,0,0-0.1,0c0,0,0-0.1,0-0.1l6-12.3c0.2-0.4,0.5-0.8,0.8-1.1
                                            c0.3-0.2,0.6-0.3,0.9-0.3h1.1c0.4,0,0.7,0.1,1.1,0.3c0.4,0.3,0.7,0.7,0.9,1.1l6.1,12.3c0,0,0,0.1,0,0.1c0,0,0,0,0,0L359.2-37.4z
                                             M353.1-48.8c-0.2,0-0.3,0.1-0.4,0.3l-2.9,6c0,0.1,0,0.2,0,0.3c0,0.1,0.1,0.1,0.2,0.1h6.3c0.1,0,0.2,0,0.2-0.1c0-0.1,0-0.2,0-0.3
                                            l-2.9-6c-0.1-0.2-0.2-0.3-0.4-0.3L353.1-48.8z"></path>
                                        <path id="패스_15_1_" class="st3" d="M375.6-37.4c-0.1,0-0.1,0-0.2,0c0,0-0.1-0.1-0.1-0.1l-2.9-4.3c0-0.1-0.1-0.1-0.2-0.1h-6
                                            c-0.1,0-0.2,0.1-0.2,0.3v4.1c0,0.2,0,0.2-0.2,0.2h-2c-0.2,0-0.2-0.1-0.2-0.2v-13.3c0-0.3,0.1-0.4,0.3-0.4h9.9c1.3,0,2.3,0.3,2.9,1
                                            c0.6,0.7,0.9,1.7,0.9,3v1.2c0,0.9-0.2,1.8-0.6,2.6c-0.5,0.7-1.2,1.1-2,1.2c-0.1,0-0.2,0.1-0.2,0.2c0,0.1,0,0.2,0,0.2l3.2,4.3
                                            c0,0,0,0,0,0c0,0,0,0,0,0.1l0,0c0,0,0,0-0.1,0L375.6-37.4z M366.4-48.9c-0.3,0-0.5,0.2-0.5,0.4c0,0,0,0,0,0.1v4.3
                                            c0,0.1,0.1,0.2,0.2,0.3h7.1c0.6,0.1,1.1-0.1,1.5-0.5c0.3-0.4,0.5-1,0.5-1.6v-0.9c0-0.6-0.1-1.1-0.5-1.6c-0.4-0.4-0.9-0.6-1.5-0.5
                                            L366.4-48.9z"></path>
                                        <path id="패스_16_1_" class="st3" d="M385.6-37.4c-0.1,0-0.2,0-0.2-0.2v-11c0-0.1-0.1-0.2-0.2-0.3h-5.8c-0.2,0-0.2,0-0.2-0.2v-2
                                            c0-0.1,0-0.2,0.2-0.2h14.4c0.2,0,0.2,0.1,0.2,0.2v2c0,0.2,0,0.2-0.2,0.2h-5.8c-0.1,0-0.2,0.1-0.2,0.3v11c0,0.2,0,0.2-0.2,0.2
                                            L385.6-37.4z"></path>
                                        <path id="패스_17_1_" class="st3" d="M407.1-37.4c-0.8,0-1.6-0.1-2.3-0.3c-0.6-0.2-1.1-0.5-1.5-0.9c-0.4-0.4-0.7-1-0.8-1.6
                                            c-0.2-0.8-0.3-1.6-0.3-2.4V-46c0-0.8,0.1-1.6,0.3-2.4c0.1-0.6,0.4-1.1,0.8-1.6c0.4-0.4,0.9-0.7,1.5-0.9c0.8-0.2,1.5-0.3,2.3-0.3
                                            h9.3c0.1,0,0.2,0,0.2,0.2v2c0,0.2-0.1,0.2-0.2,0.2h-9.2c-0.4,0-0.8,0-1.2,0.1c-0.3,0.1-0.6,0.3-0.9,0.5c-0.2,0.3-0.4,0.6-0.5,1
                                            c-0.1,0.5-0.1,0.9-0.1,1.4v3c0,0.5,0,1,0.1,1.4c0.1,0.4,0.2,0.7,0.5,1c0.2,0.3,0.5,0.4,0.9,0.5c0.4,0.1,0.8,0.2,1.2,0.1h6.1
                                            c0.3,0,0.7-0.1,0.9-0.4c0.2-0.3,0.3-0.7,0.3-1.1v-1.7c0-0.3-0.1-0.5-0.4-0.5c0,0,0,0-0.1,0h-5.4c-0.1,0-0.2,0-0.2-0.2v-1.5
                                            c0-0.2,0.1-0.2,0.2-0.2h7.7c0.2,0,0.3,0.1,0.3,0.4v4.8c0,1.1-0.2,1.8-0.5,2.3c-0.4,0.4-0.9,0.7-1.5,0.6L407.1-37.4z"></path>
                                        <path id="패스_18_1_" class="st3" d="M432.6-37.4c-0.2,0-0.2-0.1-0.2-0.1l-1.3-2.7c0-0.1-0.1-0.1-0.2-0.1h-8.7
                                            c-0.1,0-0.2,0.1-0.2,0.1l-1.3,2.6c0,0.1-0.1,0.1-0.2,0.1h-2.4c0,0,0,0-0.1,0c0,0,0-0.1,0-0.1l6-12.3c0.2-0.4,0.5-0.8,0.8-1.1
                                            c0.3-0.2,0.6-0.3,0.9-0.3h1.1c0.4,0,0.7,0.1,1.1,0.3c0.4,0.3,0.7,0.7,0.9,1.1l6.1,12.3c0,0,0,0.1,0,0.1c0,0,0,0,0,0L432.6-37.4z
                                             M426.5-48.8c-0.2,0-0.3,0.1-0.4,0.3l-2.9,6c0,0.1,0,0.2,0,0.3c0,0.1,0.1,0.1,0.2,0.1h6.3c0.1,0,0.2,0,0.2-0.1c0-0.1,0-0.2,0-0.3
                                            l-2.9-6c-0.1-0.2-0.2-0.3-0.4-0.3H426.5z"></path>
                                        <path id="패스_19_1_" class="st3" d="M441.2-37.4c-0.8,0-1.6-0.1-2.3-0.3c-0.6-0.2-1.1-0.5-1.5-0.9c-0.4-0.4-0.7-1-0.8-1.6
                                            c-0.2-0.8-0.3-1.6-0.3-2.4V-51c0-0.1,0-0.2,0.2-0.2h2c0.1,0,0.2,0,0.2,0.2v8.2c0,0.5,0,1,0.1,1.4c0.1,0.4,0.2,0.7,0.5,1
                                            c0.2,0.3,0.5,0.4,0.9,0.5c0.4,0.1,0.8,0.2,1.2,0.1h7.5c0.1,0,0.2,0,0.2,0.2v2c0,0.2,0,0.2-0.2,0.2L441.2-37.4z"></path>
                                        <path id="패스_20_1_" class="st3" d="M455.7-37.4c-0.8,0-1.6-0.1-2.3-0.3c-0.6-0.2-1.1-0.5-1.5-0.9c-0.4-0.4-0.7-1-0.8-1.6
                                            c-0.2-0.8-0.3-1.6-0.3-2.4V-51c0-0.1,0-0.2,0.2-0.2h2c0.1,0,0.2,0,0.2,0.2v8.2c0,0.5,0,1,0.1,1.4c0.1,0.4,0.2,0.7,0.5,1
                                            c0.2,0.3,0.5,0.4,0.9,0.5c0.4,0.1,0.8,0.2,1.2,0.1h7.5c0.1,0,0.2,0,0.2,0.2v2c0,0.2,0,0.2-0.2,0.2L455.7-37.4z"></path>
                                        <path id="패스_21_1_" class="st3" d="M470.3-37.4c-0.8,0-1.6-0.1-2.3-0.3c-0.6-0.2-1.1-0.5-1.5-0.9c-0.4-0.4-0.7-1-0.8-1.6
                                            c-0.2-0.8-0.3-1.6-0.3-2.4V-46c0-0.8,0.1-1.6,0.3-2.4c0.1-0.6,0.4-1.1,0.8-1.6c0.4-0.4,0.9-0.7,1.5-0.9c0.8-0.2,1.5-0.3,2.3-0.3
                                            h8.1c0.2,0,0.2,0.1,0.2,0.2v1.9c0,0.1,0,0.2-0.2,0.2h-8.1c-0.4,0-0.8,0-1.2,0.1c-0.3,0.1-0.6,0.3-0.9,0.5c-0.2,0.3-0.4,0.6-0.5,1
                                            c-0.1,0.5-0.1,0.9-0.1,1.4v0.2c0,0.1,0.1,0.2,0.2,0.3h10.4c0.1,0,0.2,0,0.2,0.2v1.6c0,0.2,0,0.2-0.2,0.2h-10.4
                                            c-0.1,0-0.2,0.1-0.2,0.3v0.3c0,0.5,0,0.9,0.1,1.4c0.1,0.4,0.2,0.7,0.5,1c0.2,0.3,0.5,0.4,0.9,0.5c0.4,0.1,0.8,0.2,1.2,0.1h8.1
                                            c0.2,0,0.2,0.1,0.2,0.2v1.9c0,0.1,0,0.2-0.2,0.2L470.3-37.4z"></path>
                                        <path id="패스_22_1_" class="st3" d="M493.2-37.4c-0.1,0-0.1,0-0.2,0c0,0-0.1-0.1-0.1-0.1l-2.9-4.3c0-0.1-0.1-0.1-0.2-0.1h-6
                                            c-0.1,0-0.2,0.1-0.2,0.3v4.1c0,0.2,0,0.2-0.2,0.2h-2c-0.2,0-0.2-0.1-0.2-0.2v-13.3c0-0.3,0.1-0.4,0.3-0.4h9.9c1.3,0,2.3,0.3,2.9,1
                                            c0.6,0.7,0.9,1.7,0.9,3v1.2c0,0.9-0.2,1.8-0.6,2.6c-0.5,0.7-1.2,1.1-2,1.2c-0.1,0-0.2,0.1-0.2,0.2c0,0.1,0,0.2,0,0.2l3.2,4.3
                                            c0,0,0,0,0,0c0,0,0,0,0,0.1l0,0c0,0,0,0-0.1,0L493.2-37.4z M484.1-48.9c-0.3,0-0.5,0.2-0.5,0.4c0,0,0,0,0,0.1v4.3
                                            c0,0.1,0.1,0.2,0.2,0.3h7.1c0.6,0.1,1.1-0.1,1.5-0.5c0.3-0.4,0.5-1,0.5-1.6v-0.9c0-0.6-0.1-1.1-0.5-1.6c-0.4-0.4-0.9-0.6-1.5-0.5
                                            L484.1-48.9z"></path>
                                        <path id="패스_23_1_" class="st3" d="M502.7-37.4c-0.2,0-0.2-0.1-0.2-0.2v-3.9c0-0.1,0-0.1,0-0.2l-6.5-9.6h2.5
                                            c0.1,0,0.2,0,0.2,0.1l4.9,7.4c0,0.1,0.1,0.1,0.2,0.1l0,0c0.1,0,0.1,0,0.2-0.1l5-7.4c0-0.1,0.2-0.2,0.3-0.1h2.4l-6.6,9.6
                                            c0,0,0,0.1,0,0.2v3.9c0,0.2,0,0.2-0.2,0.2L502.7-37.4z"></path>
                                    </g>
                                    <line class="st4" x1="405.2" y1="36.9" x2="658.9" y2="36.9"></line>
                                </g>
                            </svg>